<?xml version="1.0" encoding="UTF-8"?>
<svg xmlns="http://www.w3.org/2000/svg" xmlns:xlink="http://www.w3.org/1999/xlink" width="1190.5512pt" height="841.8898pt" viewBox="0 0 1190.5512 841.8898" version="1.1">
<g id="surface1">
<path style=" stroke:none;fill-rule:evenodd;fill:rgb(92.939758%,10.978699%,14.118958%);fill-opacity:1;" d="M 985.644531 420.148438 C 985.140625 422 984.71875 423.878906 984.351562 425.730469 C 984.351562 429.125 985.671875 431.847656 988.335938 433.839844 C 991 435.859375 994.453125 436.980469 998.6875 437.175781 C 999.894531 436.898438 1001.242188 436.757812 1002.726562 436.757812 C 1007.859375 435.832031 1013.640625 433.363281 1020.148438 429.351562 C 1026.65625 425.339844 1034.957031 419.140625 1045.113281 410.722656 L 1047.359375 419.699219 C 1039.390625 428.257812 1031.84375 435.242188 1024.691406 440.710938 C 1017.539062 446.152344 1010.890625 450.136719 1004.71875 452.691406 C 998.546875 455.242188 992.851562 456.53125 987.691406 456.53125 C 980.0625 456.53125 973.972656 453.839844 969.457031 448.453125 C 964.914062 443.066406 962.558594 436.113281 962.332031 427.554688 C 962.332031 426.40625 962.378906 425.257812 962.46875 424.109375 C 950.929688 435.03125 940.859375 443.019531 932.203125 448.117188 C 923.285156 453.390625 915.515625 456.027344 908.894531 456.027344 C 903.253906 455.832031 897.8125 454.683594 892.625 452.578125 C 887.433594 450.445312 883.03125 447.5 879.382812 443.742188 C 876.625 440.898438 874.578125 437.785156 873.21875 434.382812 C 870.210938 437.238281 867.421875 439.785156 864.851562 442.03125 C 858.820312 447.25 853.464844 451.175781 848.777344 453.8125 C 844.121094 456.421875 839.914062 457.851562 836.183594 458.078125 C 831.890625 458.078125 828.355469 456.839844 825.578125 454.402344 C 822.832031 451.960938 821.34375 448.257812 821.121094 443.265625 C 821.625 437.175781 823.28125 431.035156 826.058594 424.863281 L 825.609375 423.992188 C 818.59375 431.316406 813.179688 436.8125 809.367188 440.429688 C 805.550781 444.050781 801.90625 446.882812 798.425781 448.929688 C 794.917969 451.007812 791.582031 452.042969 788.355469 452.042969 C 783.222656 451.34375 779.265625 449.015625 776.515625 445.089844 C 773.796875 441.132812 772.421875 436.113281 772.421875 430.023438 C 772.421875 429.054688 772.449219 428.082031 772.507812 427.105469 C 765.234375 434.570312 758.316406 440.625 751.746094 445.285156 C 743.277344 451.316406 736.851562 454.457031 732.558594 454.710938 C 728.800781 454.710938 725.40625 453.335938 722.378906 450.613281 C 719.320312 447.863281 717.496094 443.910156 716.824219 438.777344 C 716.824219 431.933594 718.535156 425.648438 721.957031 419.898438 C 725.378906 414.148438 730.539062 407.359375 737.496094 399.503906 L 737.046875 399.054688 C 733.207031 399.980469 728.632812 400.960938 723.332031 402.054688 C 718 403.179688 714.804688 403.878906 713.710938 404.214844 C 711.632812 407.554688 709.390625 410.5 707.003906 413.023438 C 705.097656 415.019531 702.472656 417.542969 699.085938 420.589844 L 699.738281 423.992188 C 695.335938 428.453125 689.78125 433.390625 683.078125 438.804688 C 676.34375 444.21875 669.667969 448.875 663.019531 452.71875 C 656.371094 456.5625 650.957031 458.496094 646.804688 458.496094 C 641.363281 457.289062 638.417969 453.558594 638.023438 447.332031 C 638.503906 440.429688 641.417969 431.734375 646.804688 421.242188 L 646.355469 420.796875 C 645.851562 421.214844 641.449219 424.75 633.144531 431.425781 C 624.867188 438.128906 618.53125 443.039062 614.152344 446.183594 C 609.75 449.324219 606.046875 451.429688 603.015625 452.464844 C 600.605469 452.464844 597.742188 451.121094 594.433594 448.425781 C 591.09375 445.707031 588.261719 442.253906 585.90625 438.074219 C 583.546875 433.867188 582.371094 429.742188 582.371094 425.730469 C 582.371094 423.066406 582.511719 421.273438 582.820312 420.375 C 584.445312 414.089844 588.289062 407.917969 594.347656 401.886719 C 600.378906 395.828125 607.53125 390.441406 615.808594 385.703125 C 624.082031 380.933594 632.414062 377.089844 640.800781 374.089844 C 649.191406 371.117188 656.566406 369.347656 662.964844 368.757812 L 665.207031 368.757812 C 668.6875 368.757812 671.941406 369.769531 674.996094 371.816406 C 678.027344 373.863281 679.570312 376.53125 679.570312 379.785156 C 679.570312 381.550781 677.101562 383.289062 672.164062 384.917969 C 676.175781 386.9375 678.195312 389.6875 678.195312 393.191406 C 678.195312 396.839844 676.316406 400.820312 672.613281 405.140625 C 663.832031 415.324219 659.34375 422.957031 659.121094 427.976562 C 659.34375 430.976562 661.195312 432.71875 664.703125 433.195312 C 668.6875 433.195312 673.285156 431.707031 678.53125 428.734375 C 680.738281 427.476562 683.171875 425.917969 685.828125 424.0625 L 685.65625 422.167969 C 690.257812 418.550781 695.25 413.023438 700.664062 405.589844 C 696.457031 405.589844 694.382812 403.542969 694.382812 399.503906 C 694.382812 394.792969 696.652344 389.292969 701.199219 383.066406 C 705.742188 376.808594 711.6875 371.59375 719.066406 367.382812 C 720.890625 366.796875 722.320312 366.515625 723.359375 366.515625 C 725.714844 366.515625 726.921875 367.859375 726.921875 370.554688 C 726.921875 372.210938 726.332031 374.230469 725.15625 376.585938 C 729.894531 375.996094 734.75 375.378906 739.714844 374.707031 C 744.652344 374.03125 748.382812 373.554688 750.878906 373.246094 C 753.375 372.96875 755.335938 372.828125 756.769531 372.828125 C 759.910156 372.828125 762.15625 374.371094 763.5 377.457031 C 764.847656 380.539062 765.550781 383.90625 765.550781 387.609375 C 765.550781 389.6875 765.378906 391.03125 765.101562 391.648438 C 764.761719 392.660156 762.800781 394.792969 759.152344 398.101562 C 755.507812 401.410156 752.703125 404.019531 750.652344 405.957031 C 748.632812 407.890625 746.558594 410.386719 744.453125 413.417969 C 741.3125 419.113281 739.574219 423.207031 739.292969 425.730469 C 739.742188 427.808594 740.46875 429.324219 741.480469 430.191406 C 742.519531 431.089844 744.089844 431.792969 746.25 432.269531 C 751.597656 431.953125 761.15625 425.867188 774.921875 413.972656 C 775.902344 410.753906 777.171875 407.503906 778.734375 404.214844 C 782.914062 395.324219 788.636719 388.003906 795.871094 382.195312 C 803.109375 376.359375 810.9375 373.472656 819.378906 373.472656 C 824.457031 373.472656 826.984375 374.820312 826.984375 377.511719 C 826.984375 379.921875 825.1875 383.148438 821.570312 387.160156 C 813.378906 396.304688 806.054688 403.039062 799.605469 407.386719 C 793.09375 412.183594 789.503906 418.128906 788.804688 425.3125 C 789.140625 425.929688 789.308594 426.65625 789.308594 427.554688 C 789.308594 428.339844 789.8125 428.957031 790.824219 429.351562 C 796.042969 428.257812 801.203125 426.011719 806.253906 422.648438 C 811.300781 419.253906 816.125 415.464844 820.726562 411.230469 C 825.355469 406.992188 830.347656 402.335938 835.761719 397.257812 C 850.460938 382.53125 861.683594 372.882812 869.398438 368.339844 C 869.957031 368.03125 870.714844 367.890625 871.640625 367.890625 C 873.210938 367.890625 874.445312 369.066406 875.371094 371.425781 C 876.324219 373.78125 876.773438 376.558594 876.773438 379.785156 C 876.773438 382.617188 876.492188 384.636719 875.90625 385.816406 C 873.71875 389.039062 869.648438 393.527344 863.757812 399.25 C 857.839844 404.972656 853.324219 409.910156 850.238281 414.089844 C 847.152344 418.269531 845.382812 423.066406 844.90625 428.480469 C 845.664062 430.277344 846.28125 431.371094 846.757812 431.820312 C 847.234375 432.269531 848.359375 432.71875 850.097656 433.195312 C 853.582031 432.898438 858.253906 430.949219 864.109375 427.335938 C 864.59375 425.542969 865.679688 423.792969 867.378906 422.113281 L 917.675781 376.136719 C 917.675781 372.011719 919.046875 368.675781 921.796875 366.09375 C 924.574219 363.542969 927.578125 362.25 930.886719 362.25 C 936.132812 362.25 938.769531 364.410156 938.769531 368.757812 C 938.769531 369.628906 939.527344 373.472656 941.011719 380.230469 C 942.5 386.992188 943.257812 392.378906 943.257812 396.363281 C 943.257812 411.847656 933.609375 425.421875 914.28125 437.148438 C 916.550781 437.148438 918.261719 437.289062 919.441406 437.597656 C 923.199219 437.484375 926.679688 436.839844 929.90625 435.71875 C 933.101562 434.597656 936.214844 433.054688 939.21875 431.175781 C 942.191406 429.265625 945.808594 426.601562 949.988281 423.207031 C 952.554688 421.136719 959.476562 415.832031 965.289062 411.355469 C 966.625 407.6875 968.40625 404.007812 970.636719 400.316406 C 976.160156 391.199219 983.511719 383.625 992.683594 377.59375 C 1001.859375 371.5625 1011.507812 368.339844 1021.578125 367.890625 C 1033.21875 367.890625 1039.027344 371.703125 1039.027344 379.335938 C 1039.027344 383.90625 1037.316406 388.367188 1033.890625 392.769531 C 1031.226562 396.277344 1027.777344 399.503906 1023.542969 402.503906 C 1019.304688 405.507812 1014.875 408.117188 1010.21875 410.359375 C 1005.558594 412.632812 1001.660156 414.34375 998.519531 415.519531 C 995.378906 416.699219 991.085938 418.242188 985.644531 420.148438 Z M 986.09375 409.574219 C 992.882812 407.050781 998.800781 404.046875 1003.792969 400.542969 C 1008.8125 397.035156 1012.65625 393.613281 1015.324219 390.332031 C 1017.988281 387.019531 1019.335938 384.46875 1019.335938 382.671875 C 1019.335938 382.140625 1019.25 381.746094 1019.136719 381.523438 C 1018.996094 381.296875 1018.914062 381.15625 1018.828125 381.074219 C 1014.734375 381.074219 1009.292969 383.542969 1002.476562 388.480469 C 995.628906 393.417969 990.1875 400.457031 986.09375 409.574219 Z M 920.367188 403.738281 L 917.675781 388.984375 C 915.261719 390.921875 912.089844 393.753906 908.164062 397.511719 C 904.238281 401.242188 899.972656 405.3125 895.371094 409.6875 C 890.773438 414.0625 887.265625 417.230469 884.910156 419.195312 C 887.183594 419.308594 889.117188 419.671875 890.714844 420.261719 C 892.316406 420.878906 893.71875 421.722656 894.867188 422.785156 C 896.046875 423.878906 897.335938 425.367188 898.765625 427.332031 C 900.199219 429.265625 901.402344 430.894531 902.386719 432.210938 C 914.363281 426.378906 920.367188 418.523438 920.367188 408.675781 Z M 658.671875 391.226562 L 658.671875 390.722656 C 645.824219 395.210938 635.695312 399 628.292969 402.054688 C 620.859375 405.085938 614.039062 409.210938 607.84375 414.398438 C 601.640625 419.589844 598.527344 425.535156 598.527344 432.269531 C 598.527344 434.738281 599.875 436.25 602.597656 436.757812 C 610.394531 436.449219 629.105469 421.273438 658.671875 391.226562 Z M 524.863281 345.421875 L 590.167969 314.449219 C 600.941406 309.203125 607.84375 306.566406 610.816406 306.566406 C 612.75 306.566406 613.734375 307.71875 613.734375 309.960938 C 613.734375 313.46875 612.5 317.03125 610 320.621094 C 607.53125 324.210938 604.449219 327.1875 600.746094 329.542969 C 597.070312 331.871094 593.535156 333.132812 590.167969 333.300781 C 589.691406 333.1875 589.019531 333.078125 588.148438 332.9375 C 587.28125 332.769531 586.4375 332.601562 585.679688 332.375 C 565.960938 342.78125 548.398438 351.730469 533.027344 359.222656 C 517.65625 366.710938 508.3125 371.425781 505.003906 373.332031 C 501.695312 375.238281 499.644531 377.398438 498.832031 379.785156 C 498.832031 380.539062 498.636719 381.496094 498.1875 382.671875 C 498.410156 383.992188 499.308594 385.28125 500.9375 386.542969 C 502.535156 387.804688 505.507812 389.65625 509.855469 392.097656 L 571.316406 427.554688 C 574.65625 429.40625 578.023438 432.410156 581.472656 436.53125 C 584.894531 440.65625 586.605469 445.367188 586.605469 450.671875 C 586.128906 457.710938 584.25 461.246094 580.96875 461.246094 C 579.371094 461.246094 576.144531 459.957031 571.316406 457.402344 L 480.878906 407.386719 L 462.953125 428.902344 C 462.953125 431.425781 461.972656 434.261719 460.007812 437.375 C 458.015625 440.515625 455.492188 443.488281 452.351562 446.351562 C 449.238281 449.183594 446.179688 451.371094 443.175781 452.914062 C 440.007812 454.402344 437.089844 455.160156 434.480469 455.160156 C 431.480469 455.160156 429.742188 453.671875 429.265625 450.671875 C 429.851562 447.164062 431.421875 443.65625 433.976562 440.152344 L 467.890625 396.8125 C 465.730469 393.894531 464.382812 390.527344 463.824219 386.738281 C 463.992188 382.699219 465.789062 379.167969 469.238281 376.082031 C 472.6875 372.996094 478.664062 369.234375 487.191406 364.804688 C 495.71875 360.398438 500.515625 357.902344 501.523438 357.3125 L 523.546875 323.679688 C 510.980469 326.402344 499.503906 329.710938 489.097656 333.609375 C 478.691406 337.507812 469.351562 341.492188 461.074219 345.617188 C 452.800781 349.710938 445.589844 353.273438 439.445312 356.277344 C 433.332031 359.25 428.28125 361.101562 424.328125 361.800781 C 421.519531 361.800781 419.585938 361.210938 418.492188 360.007812 C 417.425781 358.828125 416.753906 357.035156 416.5 354.621094 C 416.640625 351.929688 417.203125 348.953125 418.183594 345.699219 C 419.136719 342.445312 420.316406 338.941406 421.746094 335.152344 C 423.148438 331.367188 423.851562 329.261719 423.90625 328.8125 C 424.773438 326.457031 426.738281 324.296875 429.796875 322.390625 C 432.828125 320.453125 434.984375 318.9375 436.21875 317.816406 C 445.503906 310.636719 451.648438 307.074219 454.621094 307.074219 C 455.546875 307.074219 455.996094 307.4375 455.996094 308.167969 C 455.996094 309.652344 454.847656 311.730469 452.519531 314.394531 C 450.191406 317.085938 447.246094 319.414062 443.683594 321.40625 C 451.171875 318.488281 458.523438 315.601562 465.789062 312.738281 C 473.023438 309.878906 479.785156 307.382812 486.011719 305.304688 C 492.269531 303.203125 498.917969 301.433594 505.929688 300.003906 C 512.96875 298.574219 519.957031 297.871094 526.882812 297.871094 C 529.464844 297.871094 531.878906 298.964844 534.207031 301.183594 C 536.535156 303.398438 538.414062 306.035156 539.816406 309.121094 C 541.246094 312.207031 541.976562 314.957031 541.976562 317.367188 C 541.976562 320.03125 541.5 321.828125 540.601562 322.753906 Z M 328.5 381.074219 L 396.050781 381.074219 L 396.050781 400.792969 L 328.5 400.792969 Z M 243.421875 377.0625 L 278.652344 374.820312 L 310.519531 321.855469 Z M 261.824219 403.320312 L 213.40625 405.113281 L 165.578125 452.464844 C 164.230469 453.867188 162.855469 455.269531 161.453125 456.703125 C 160.078125 458.105469 158.589844 459.480469 156.964844 460.769531 C 155.367188 462.058594 153.570312 463.179688 151.550781 464.109375 C 149.53125 465.0625 147.484375 465.566406 145.351562 465.679688 C 140.132812 465.679688 137.523438 464.191406 137.523438 461.246094 C 137.523438 458.863281 138.675781 455.886719 141.003906 452.296875 C 143.332031 448.734375 146.082031 445.257812 149.25 441.917969 C 152.421875 438.582031 155.113281 436.25 157.300781 434.933594 C 163.835938 430.667969 167.792969 428.117188 169.195312 427.332031 C 170.570312 426.515625 172.898438 425.535156 176.152344 424.414062 L 193.628906 405.113281 C 190.765625 405.113281 187.402344 405.421875 183.53125 406.011719 C 175.898438 406.011719 171.777344 404.441406 171.160156 401.300781 C 171.636719 399.167969 172.5625 397.230469 173.90625 395.4375 C 178.03125 389.433594 183.5 383.851562 190.347656 378.632812 C 197.164062 373.445312 205.355469 370.75 214.917969 370.554688 C 218.847656 370.554688 220.78125 371.144531 220.78125 372.347656 C 220.78125 372.9375 220.277344 373.5 219.265625 374.03125 C 218.230469 374.566406 216.9375 374.820312 215.367188 374.820312 C 207.933594 375.292969 204.203125 376.332031 204.203125 377.960938 C 204.203125 379.082031 205.464844 379.839844 207.964844 380.203125 C 211.554688 379.613281 216.125 379.335938 221.679688 379.335938 L 260.308594 346.765625 C 263.476562 344.214844 267.769531 340.761719 273.183594 336.386719 C 278.625 332.039062 284.125 327.71875 289.707031 323.425781 C 295.289062 319.164062 300.589844 315.292969 305.554688 311.8125 C 310.519531 308.363281 315.234375 305.277344 319.722656 302.558594 C 323.5625 300.453125 326.789062 299.386719 329.371094 299.386719 C 334.925781 299.386719 337.703125 302.753906 337.703125 309.511719 C 337.703125 311.394531 337.394531 313.1875 336.777344 314.898438 L 303.144531 373.890625 L 317.28125 373.246094 L 323.789062 374.820312 C 316.328125 384.691406 310.941406 393.21875 307.632812 400.402344 L 289.425781 401.300781 L 275.089844 429.351562 C 275.847656 431.117188 277.195312 432.210938 279.128906 432.6875 C 281.007812 432.519531 283.058594 431.679688 285.273438 430.164062 C 287.488281 428.679688 292.117188 425.339844 299.074219 420.148438 L 302.695312 426.210938 C 283.367188 445.507812 267.882812 455.160156 256.238281 455.160156 C 249.789062 454.402344 246.253906 450.109375 245.664062 442.339844 C 246.167969 437.316406 247.375 432.859375 249.28125 428.902344 Z M 261.824219 403.320312 "/>
<path style=" stroke:none;fill-rule:nonzero;fill:rgb(92.939758%,10.978699%,14.118958%);fill-opacity:1;" d="M 166.847656 530.703125 L 191.53125 530.703125 L 179.371094 512.796875 Z M 141.617188 548.269531 L 173.507812 504.257812 L 186.140625 504.257812 L 218.46875 548.269531 L 203.742188 548.269531 L 196.972656 538.664062 L 161.238281 538.664062 L 154.6875 548.269531 Z M 244.78125 548.269531 L 244.78125 504.257812 L 258.015625 504.257812 L 258.015625 522.617188 L 289.269531 504.257812 L 308.257812 504.257812 L 270.921875 524.992188 L 312.84375 548.269531 L 291.78125 548.269531 L 258.015625 528.914062 L 258.015625 548.269531 Z M 362.039062 512.128906 L 362.039062 548.269531 L 348.914062 548.269531 L 348.914062 512.128906 L 323.046875 512.128906 L 323.046875 504.257812 L 388.015625 504.257812 L 388.015625 512.128906 Z M 461.070312 511.960938 L 424.175781 511.960938 L 424.175781 521.410156 L 459.304688 521.410156 C 464.820312 521.410156 468.554688 522.148438 470.484375 523.613281 C 472.429688 525.089844 473.394531 527.820312 473.394531 531.828125 L 473.394531 537.867188 C 473.394531 541.859375 472.429688 544.589844 470.484375 546.066406 C 468.554688 547.53125 464.820312 548.269531 459.304688 548.269531 L 424.503906 548.269531 C 418.988281 548.269531 415.253906 547.53125 413.328125 546.066406 C 411.378906 544.589844 410.414062 541.859375 410.414062 537.867188 L 410.414062 536.660156 L 421.992188 534.78125 L 421.992188 539.984375 L 461.820312 539.984375 L 461.820312 529.949219 L 426.6875 529.949219 C 421.207031 529.949219 417.511719 529.210938 415.582031 527.75 C 413.671875 526.269531 412.707031 523.542969 412.707031 519.535156 L 412.707031 514.675781 C 412.707031 510.667969 413.671875 507.9375 415.582031 506.460938 C 417.511719 504.996094 421.207031 504.257812 426.6875 504.257812 L 458.667969 504.257812 C 463.964844 504.257812 467.625 504.96875 469.628906 506.375 C 471.648438 507.796875 472.648438 510.308594 472.648438 513.921875 L 472.648438 514.832031 L 461.070312 516.960938 Z M 508.773438 548.269531 L 508.773438 504.257812 L 521.898438 504.257812 L 521.898438 548.269531 Z M 573.332031 530.703125 L 598.015625 530.703125 L 585.855469 512.796875 Z M 548.101562 548.269531 L 579.996094 504.257812 L 592.628906 504.257812 L 624.953125 548.269531 L 610.230469 548.269531 L 603.457031 538.664062 L 567.726562 538.664062 L 561.171875 548.269531 Z M 698.195312 511.960938 L 661.296875 511.960938 L 661.296875 521.410156 L 696.429688 521.410156 C 701.945312 521.410156 705.675781 522.148438 707.605469 523.613281 C 709.554688 525.089844 710.519531 527.820312 710.519531 531.828125 L 710.519531 537.867188 C 710.519531 541.859375 709.554688 544.589844 707.605469 546.066406 C 705.675781 547.53125 701.945312 548.269531 696.429688 548.269531 L 661.625 548.269531 C 656.109375 548.269531 652.378906 547.53125 650.449219 546.066406 C 648.5 544.589844 647.535156 541.859375 647.535156 537.867188 L 647.535156 536.660156 L 659.113281 534.78125 L 659.113281 539.984375 L 698.941406 539.984375 L 698.941406 529.949219 L 663.808594 529.949219 C 658.332031 529.949219 654.636719 529.210938 652.707031 527.75 C 650.796875 526.269531 649.832031 523.542969 649.832031 519.535156 L 649.832031 514.675781 C 649.832031 510.667969 650.796875 507.9375 652.707031 506.460938 C 654.636719 504.996094 658.332031 504.257812 663.808594 504.257812 L 695.792969 504.257812 C 701.089844 504.257812 704.75 504.96875 706.75 506.375 C 708.769531 507.796875 709.773438 510.308594 709.773438 513.921875 L 709.773438 514.832031 L 698.195312 516.960938 Z M 745.898438 548.269531 L 745.898438 504.257812 L 803.617188 504.257812 L 803.617188 511.746094 L 759.023438 511.746094 L 759.023438 521.582031 L 785.050781 521.582031 L 785.050781 529.070312 L 759.023438 529.070312 L 759.023438 539.984375 L 804.148438 539.984375 L 804.148438 548.269531 Z M 836.523438 548.269531 L 836.523438 504.257812 L 849.644531 504.257812 L 849.644531 539.984375 L 891.929688 539.984375 L 891.929688 548.269531 Z M 932.605469 512.128906 L 932.605469 548.269531 L 919.484375 548.269531 L 919.484375 512.128906 L 893.617188 512.128906 L 893.617188 504.257812 L 958.582031 504.257812 L 958.582031 512.128906 Z M 1031.640625 511.960938 L 994.742188 511.960938 L 994.742188 521.410156 L 1029.875 521.410156 C 1035.390625 521.410156 1039.121094 522.148438 1041.050781 523.613281 C 1043 525.089844 1043.964844 527.820312 1043.964844 531.828125 L 1043.964844 537.867188 C 1043.964844 541.859375 1043 544.589844 1041.050781 546.066406 C 1039.121094 547.53125 1035.390625 548.269531 1029.875 548.269531 L 995.070312 548.269531 C 989.554688 548.269531 985.824219 547.53125 983.894531 546.066406 C 981.945312 544.589844 980.980469 541.859375 980.980469 537.867188 L 980.980469 536.660156 L 992.558594 534.78125 L 992.558594 539.984375 L 1032.386719 539.984375 L 1032.386719 529.949219 L 997.253906 529.949219 C 991.777344 529.949219 988.082031 529.210938 986.152344 527.75 C 984.242188 526.269531 983.277344 523.542969 983.277344 519.535156 L 983.277344 514.675781 C 983.277344 510.667969 984.242188 507.9375 986.152344 506.460938 C 988.082031 504.996094 991.777344 504.257812 997.253906 504.257812 L 1029.238281 504.257812 C 1034.535156 504.257812 1038.195312 504.96875 1040.195312 506.375 C 1042.214844 507.796875 1043.21875 510.308594 1043.21875 513.921875 L 1043.21875 514.832031 L 1031.640625 516.960938 Z M 1031.640625 511.960938 "/>
</g>
</svg>
