<svg xmlns="http://www.w3.org/2000/svg" xmlns:svg="http://www.w3.org/2000/svg" id="svg2" version="1.1" viewBox="0 0 1480.212 840.431"><metadata id="metadata8"/><path id="path817" fill="#231f20" stroke-width="1.333" d="M 18.50685,838.57898 C 8.92993,835.87399 3.11655,829.52512 0.93319,819.38655 L 0,815.05322 h 10.77261 c 9.54086,0 10.7726,0.27833 10.7726,2.43425 0,7.10235 12.88778,11.46224 18.60035,6.29243 6.15552,-5.57067 2.1737,-10.2459 -12.07318,-14.17566 -5.42327,-1.49592 -12.33242,-4.1614 -15.35367,-5.9233 -13.52916,-7.88979 -12.53665,-26.33886 1.80025,-33.46334 7.50037,-3.72718 28.34802,-3.55254 35.69292,0.29899 5.44526,2.85541 9.11754,7.70761 10.70325,14.14227 l 0.88854,3.60565 -9.79589,0.39435 c -9.576,0.3855 -9.85673,0.30456 -12.50546,-3.60564 -4.61693,-6.81578 -17.39364,-5.927 -16.35478,1.13768 0.32272,2.19465 2.90184,3.42318 13.68428,6.51838 16.7869,4.81883 21.66503,7.80874 24.98483,15.31368 4.65944,10.53344 0.25844,22.10446 -10.71057,28.16006 -7.08134,3.90934 -23.07842,5.08509 -32.59923,2.39596 z m 74.65634,-0.009 c -8.40114,-2.36328 -15.43128,-8.22428 -19.55052,-16.29922 -2.82594,-5.5397 -3.34495,-8.40156 -3.36413,-18.55024 -0.0187,-9.87324 0.52383,-13.11207 3.06091,-18.27474 5.83906,-11.8821 17.49605,-18.39222 32.93252,-18.39222 22.28199,0 35.33351,12.90317 35.44912,35.04618 0.0285,5.46398 -0.59085,12.32138 -1.3764,15.23867 -2.15116,7.9888 -8.35266,15.61943 -15.50996,19.08421 -7.74625,3.7499 -22.40716,4.74472 -31.64154,2.14707 z m 22.97702,-18.83903 c 3.17092,-3.17092 3.405,-4.27163 3.405,-16.01107 0,-11.99933 -0.17793,-12.784 -3.69697,-16.30302 -2.95925,-2.95926 -4.91002,-3.69698 -9.77603,-3.69698 -5.1505,0 -6.65895,0.64899 -9.87532,4.24874 -8.66821,9.70141 -5.96209,30.70158 4.53248,35.17326 4.45962,1.90022 11.70286,0.29704 15.41084,-3.41093 z m 166.62706,19.41492 c -7.99368,-1.56264 -14.06186,-6.24757 -17.79468,-13.73841 -3.31558,-6.65348 -3.42738,-7.69562 -3.42738,-31.94936 v -25.07155 h 10.66667 10.66667 v 23.92565 c 0,23.31554 0.0813,24.02027 3.19182,27.63636 2.55148,2.96628 4.31856,3.71072 8.80818,3.71072 4.48961,0 6.25669,-0.74444 8.80817,-3.71072 3.11044,-3.61609 3.19183,-4.32082 3.19183,-27.63636 v -23.92565 h 10.66666 10.66667 l -0.008,23.66667 c -0.004,13.01666 -0.64401,25.95913 -1.42205,28.76104 -2.14955,7.74093 -9.62275,15.18753 -17.62744,17.56466 -6.98527,2.0744 -18.05376,2.39611 -26.38768,0.76695 z m 131.44461,0.2878 c -9.84111,-2.37496 -15.42065,-8.22799 -17.75731,-18.62768 l -1.23598,-5.50099 6.1633,-0.85985 c 3.38983,-0.47293 8.11332,-1.19636 10.49666,-1.60763 4.11485,-0.71005 4.33333,-0.54014 4.33333,3.36991 0,2.92084 0.96884,4.75245 3.33333,6.30173 3.08783,2.02322 3.57884,2.02322 6.66667,0 l 3.33333,-2.18409 v -25.96925 -25.96927 h 11.53578 11.53578 l -0.81172,25.66667 c -0.44645,14.11666 -1.45213,27.8673 -2.23484,30.55697 -3.36008,11.54645 -20.01121,18.5272 -35.35833,14.82348 z m 313.76073,-0.90711 c -8.79117,-2.36714 -14.96721,-7.58566 -19.18842,-16.2135 -3.03607,-6.2055 -3.64614,-9.24419 -3.70432,-18.4508 -0.0596,-9.42999 0.46534,-12.11532 3.63466,-18.59318 5.90983,-12.07925 16.73519,-18.21586 32.13392,-18.21586 15.44982,0 27.134,6.53194 32.89904,18.39193 4.36654,8.98291 4.30235,27.4588 -0.12733,36.64719 -7.26865,15.07734 -25.84669,21.76588 -45.64759,16.43422 z m 22.59592,-18.55726 c 6.88291,-6.88291 7.03394,-24.4921 0.27492,-32.05672 -3.16346,-3.54054 -4.69173,-4.1927 -9.82522,-4.1927 -8.09511,0 -12.49074,4.24008 -13.89382,13.40218 -1.96877,12.85616 1.30427,22.98766 8.4208,26.0661 4.20463,1.81882 11.56202,0.24243 15.02332,-3.21886 z m 124.47035,19.06232 c -7.1345,-1.50487 -10.9537,-3.9077 -15.3293,-9.64436 -4.9259,-6.45824 -6.0955,-13.83386 -6.1318,-38.66738 l -0.033,-22.33333 h 10.5843 10.5842 l 0.4158,24.53035 c 0.3626,21.39217 0.723,24.86936 2.8172,27.1803 4.6958,5.18156 16.6234,4.51515 19.6267,-1.09657 0.7178,-1.34132 1.3052,-13.27821 1.3052,-26.52643 v -24.08765 h 11.3333 11.3333 l -0.027,19 c -0.047,33.06475 -3.0856,43.10548 -14.8654,49.11511 -6.3782,3.25388 -22.1849,4.51884 -31.6141,2.52996 z m 143.60042,-0.50506 c -8.8615,-2.38606 -14.9682,-7.59013 -19.31782,-16.46226 -7.6268,-15.55723 -3.7465,-38.63803 8.00252,-47.59943 14.2335,-10.85636 39.309,-9.62563 50.9857,2.50241 13.4086,13.92702 12.0015,44.91375 -2.5433,56.00762 -9.148,6.97753 -23.7324,9.15836 -37.1271,5.55166 z m 22.6805,-18.6419 c 6.6443,-6.64426 6.4502,-25.87938 -0.3295,-32.65907 -2.7601,-2.76017 -4.7985,-3.50571 -9.5847,-3.50571 -5.1335,0 -6.6618,0.65216 -9.8253,4.1927 -8.5945,9.61896 -5.8195,30.75472 4.6316,35.27558 4.241,1.83456 11.5731,0.23134 15.1079,-3.3035 z M 152.21188,803.71988 v -35.33333 h 10.66667 10.66666 v 35.33333 35.33334 h -10.66666 -10.66667 z m 36,0 v -35.33333 h 19.80104 c 27.30563,0 33.80436,2.57795 40.03003,15.87931 3.01734,6.44666 3.48009,9.16584 3.42416,20.12069 -0.0713,13.97419 -1.65415,18.59387 -9.0348,26.36987 -6.13412,6.46269 -14.0472,8.2968 -35.79576,8.2968 h -18.42467 z m 38.72956,15.58678 c 2.93811,-3.62842 4.36009,-13.18906 3.15595,-21.21887 -1.34518,-8.97025 -6.33458,-13.70124 -14.44962,-13.70124 h -6.10256 v 19.49844 19.49844 l 7.55484,-0.62651 c 5.58787,-0.46338 8.15016,-1.36169 9.84139,-3.45026 z M 454.87855,838.139 c 0,-0.50282 5.77234,-16.42437 12.82744,-35.38124 l 12.82745,-34.46702 11.94609,0.38124 11.94608,0.38124 12.5598,33.9271 c 6.9079,18.65991 12.5598,34.43418 12.5598,35.05392 0,0.61975 -4.9017,0.95256 -10.89268,0.73956 l -10.89268,-0.38725 -1.90121,-5.71501 -1.90121,-5.71503 -12.09826,0.38169 -12.09825,0.38168 -1.88563,5.66667 -1.88564,5.66667 h -10.55554 c -5.80556,0 -10.55556,-0.4114 -10.55556,-0.91422 z m 44,-27.34046 c 0,-2.78522 -5.93676,-22.41199 -6.77924,-22.41199 -0.44535,0 -2.10547,4.4594 -3.68914,9.90977 -1.58368,5.45039 -3.24034,10.85039 -3.6815,12 -0.66959,1.74492 0.43294,2.09023 6.67389,2.09023 4.89441,0 7.47599,-0.54836 7.47599,-1.58801 z m 73.45718,-5.36608 c -6.87548,-18.54192 -12.78024,-34.46258 -13.12168,-35.37924 -0.46572,-1.2503 2.17604,-1.66667 10.5745,-1.66667 h 11.1953 l 7.08434,23 c 3.89637,12.65 7.55468,23.85391 8.12956,24.89756 0.68718,1.24756 2.2747,-2.17796 4.63438,-10 1.97404,-6.54365 5.38863,-17.74756 7.58799,-24.89756 l 3.99884,-13 h 10.56312 c 5.80972,0 10.54844,0.45 10.53049,1 -0.018,0.55 -5.66166,16.3 -12.54157,35 l -12.50892,34 -11.81273,0.37924 -11.81275,0.37923 z m 66.54282,-1.71258 v -35.33333 h 29.33333 29.33333 v 7.33333 7.33334 h -18.74333 -18.74333 l 0.41,5.66666 0.41,5.66667 17,0.37317 17,0.37316 v 6.587 6.587 l -17,0.37316 -17,0.37318 -0.40302,7 -0.40301,7 h 18.73635 18.73634 v 8 8 h -29.33333 -29.33333 z m 140.72898,26.33334 c 1.83652,-4.95 7.68367,-20.7 12.99368,-35 l 9.65458,-26 12.00448,-0.37931 12.00441,-0.37931 12.6403,34.1871 c 6.9521,18.8029 12.8402,34.7236 13.0847,35.3793 0.2444,0.65572 -4.6276,1.19222 -10.8268,1.19222 h -11.2711 l -1.6799,-6 -1.6799,-6 H 814.0578 801.58361 l -1.51082,6 -1.51082,6 H 787.4152 776.26843 Z m 41.83427,-19.33334 c -0.0569,-0.91666 -1.73909,-6.76666 -3.73824,-13 l -3.63484,-11.33333 -2.84213,9.33333 c -1.56319,5.13334 -3.24602,10.98334 -3.73964,13 l -0.8975,3.66667 h 7.47788 c 5.14858,0 7.44567,-0.51916 7.37447,-1.66667 z m 128.10338,1.66667 v -26.66667 h -10.6666 -10.6667 v -8.66666 -8.66667 h 32.6667 32.6666 v 8.66667 8.66666 h -10.6666 -10.6667 v 26.66667 26.66667 h -11.3333 -11.3334 z m 128.00002,-8.66667 v -35.33333 l 23.6667,0.0293 c 20.3616,0.0252 24.4457,0.38298 29.2449,2.5619 6.7698,3.07361 9.7569,8.2846 9.7501,17.00928 -0.01,8.24745 -3.8397,14.62849 -10.4951,17.47076 l -5.057,2.15966 4.0778,2.74806 c 2.5349,1.70828 6.4762,7.27705 10.4166,14.71789 3.4862,6.58341 6.3516,12.41984 6.3673,12.96984 0.016,0.55 -5.3319,1 -11.8837,1 h -11.9125 l -6.8942,-13.18308 c -6.3799,-12.19981 -9.97,-16.15031 -14.6769,-16.15031 -0.7283,0 -1.2706,6.26058 -1.2706,14.66667 v 14.66667 h -10.6667 -10.6667 z m 39.2381,-9.42857 c 2.6605,-2.66048 2.699,-7.74388 0.075,-9.92151 -1.1111,-0.92212 -5.4611,-1.74558 -9.6667,-1.82992 l -7.6464,-0.15333 -0.403,7 -0.403,7 h 7.9744 c 5.4718,0 8.6321,-0.65757 10.0697,-2.09524 z m 34.0953,9.42857 v -35.33333 h 29.3333 29.3333 v 7.33333 7.33334 h -18.6666 -18.6667 v 6 6 h 17.3333 17.3334 v 6.62682 6.62684 l -17,0.37316 -17,0.37318 -0.403,7 -0.4031,7 h 18.7364 18.7363 v 8 8 h -29.3333 -29.3333 z m 68,0 v -35.33333 h 11.3333 11.3333 v 12 12 h 11.3334 11.3333 v -12 -12 h 11.3333 11.3334 v 35.33333 35.33334 h -11.3334 -11.3333 v -14.66667 -14.66667 h -11.3333 -11.3334 v 14.66667 14.66667 h -11.3333 -11.3333 z m 86.7718,1.71099 c -6.9088,-18.54104 -12.823,-34.46099 -13.1426,-35.37765 -0.4349,-1.24722 2.2384,-1.66667 10.622,-1.66667 h 11.2031 l 7.1564,23.66667 c 3.9361,13.01666 7.5764,24.15424 8.0897,24.75016 0.5133,0.59592 2.4659,-3.90408 4.3392,-10 1.8733,-6.09592 5.2814,-17.2335 7.5737,-24.75016 l 4.1679,-13.66667 h 10.6992 c 10.4846,0 10.6805,0.0601 9.7609,3 -0.516,1.65 -6.2037,17.4 -12.6393,35 l -11.7012,32 -11.7838,0.37765 -11.7837,0.37766 z m 67.8948,-1.71099 v -35.33333 h 10.6667 10.6667 v 35.33333 35.33334 h -10.6667 -10.6667 z m 34.6667,0 v -35.33333 l 19.6667,0.008 c 21.7241,0.008 27.599,1.09159 33.6837,6.21152 6.8567,5.76948 9.7193,12.97585 10.3864,26.14545 0.7779,15.36168 -1.2577,22.55998 -8.3993,29.70162 -7.1958,7.19568 -13.1736,8.60064 -36.5946,8.60064 h -18.7429 v -35.33334 z m 38.2259,16.14399 c 3.3378,-2.87116 3.759,-4.20481 4.2217,-13.36783 0.824,-16.31786 -3.0383,-22.10949 -14.7443,-22.10949 h -6.37 v 19.33333 19.33334 h 6.5923 c 5.0303,0 7.4709,-0.75578 10.3003,-3.18935 z M 334.87855,813.05322 v -7.33334 h 14 14 v 7.33334 7.33333 h -14 -14 z M 89.23754,759.38655 c 1.46452,-8.18755 8.1724,-10.48219 18.28753,-6.25581 4.50218,1.88112 5.1892,1.88112 7.26782,0 3.56701,-3.22811 8.08566,-2.69208 8.08566,0.95913 0,8.28459 -7.17764,11.01691 -18.47236,7.03191 -4.77967,-1.68638 -5.71936,-1.68638 -7.40573,0 -1.06229,1.06229 -3.39109,1.93144 -5.17511,1.93144 -2.80867,0 -3.15572,-0.49174 -2.58781,-3.66667 z M 4.57277,552.05322 c 0.5314,-166.74843 0.50667,-166.11604 7.70611,-197 C 32.364,268.89264 90.62943,208.76331 169.8672,192.42364 c 32.48133,-6.69798 59.19596,-7.01929 100.01135,-1.20288 l 10.33333,1.47256 v 101.95772 c 0,56.07676 -0.45,101.73171 -1,101.45544 -15.93116,-8.00196 -26.70311,-10.8419 -38.30041,-10.09764 -17.68134,1.13472 -30.75352,9.94036 -38.16864,25.71104 -8.95419,19.04399 -8.44892,9.95878 -8.87987,159.66667 l -0.39053,135.66667 H 98.77562 4.07881 Z m 478.41608,152.8825 c -22.39968,-6.02244 -50.48177,-31.88748 -75.14876,-69.21584 -10.35789,-15.67453 -27.34093,-50.62418 -34.08789,-70.15002 -13.38721,-38.7429 -18.88223,-71.24378 -19.81249,-117.18331 -0.75479,-37.27381 0.98922,-58.08685 7.62233,-90.96476 17.17932,-85.15159 67.08237,-162.96935 114.55367,-178.63257 8.54893,-2.82074 10.864,-2.90443 94.84044,-3.42851 57.87581,-0.36119 88.67324,-0.0676 94,0.89597 13.80562,2.49744 28.69002,10.91747 41.10468,23.2527 42.80518,42.5313 67.81344,127.44236 71.04204,241.2105 l 0.86081,30.33334 H 663.75445 549.54521 v -43.33334 -43.33333 h 34.20356 34.20355 l -0.83267,-15.66667 c -1.88112,-35.39348 -12.46718,-74.52944 -30.90576,-114.25648 -3.25306,-7.00893 -6.2755,-12.74352 -6.71653,-12.74352 -1.14263,0 -15.43883,30.423 -20.98949,44.66667 -15.71054,40.31505 -26.22212,83.22132 -30.36948,123.96247 -2.00334,19.67961 -0.90976,70.81228 1.98064,92.60885 4.22361,31.85041 10.29778,58.04595 20.07425,86.57241 6.74108,19.66955 20.32907,50.85627 22.15799,50.85627 1.68908,0 11.87729,-20.84201 18.96541,-38.79749 6.84035,-17.32782 16.32885,-49.12432 21.21891,-71.10574 l 3.24126,-14.56989 38.43679,57.23656 c 21.14023,31.48011 44.34151,65.91573 51.5584,76.5236 l 13.1216,19.28704 -7.67421,7.8286 c -9.68284,9.87764 -21.45827,18.38849 -32.75791,23.67623 -12.72,5.95241 -22.50928,6.52289 -110.91631,6.46388 -63.39705,-0.0423 -78.635,-0.40159 -84.55636,-1.99362 z m 369.57883,-232.8825 c 0.4717,-255.52866 0.079,-241.70722 7.797,-274.73812 15.5015,-66.34493 59.8333,-125.132227 121.9161,-161.669948 40.66752,-23.93406 81.52602,-35.258599 127.21192,-35.258599 h 14.7192 v 99.999997 100 h -7.8827 c -20.8395,0 -39.702,7.19771 -52.0953,19.87895 -16.3047,16.68361 -24.022,41.66228 -24.022,77.75274 v 13.03498 h 42 42 v 100 100 h -42 -42 v 98 98 h -94.03892 -94.039 z m 354.70192,4 c 0.5692,-240.0497 0.4991,-237.10162 6.3831,-268.33334 14.5027,-76.97902 66.6323,-143.870166 141.3749,-181.408224 33.925,-17.038084 62.5842,-24.200019 102.1843,-25.535817 L 1480.2119,0 v 99.991863 99.991857 l -13,0.79644 c -22.4507,1.37544 -36.6373,7.6041 -49.5839,21.76966 -14.0632,15.38741 -20.0164,34.27626 -21.0648,66.83673 l -0.6976,21.66667 h 42.1731 42.1732 v 100 100 h -42 -42 v 98 98 h -94.745 -94.745 z"/></svg>